<svg width="146" height="146" viewBox="0 0 146 146" fill="none" xmlns="http://www.w3.org/2000/svg">
<g filter="url(#filter0_d)">
<g clip-path="url(#clip0)">
<path d="M133.832 23.6275L73.7775 0.138703C73.6772 0.0982478 73.5747 0.108756 73.4723 0.0853757C73.3141 0.0470223 73.1602 0 72.9957 0C72.825 0 72.6689 0.0470223 72.5069 0.0874773C72.4107 0.110857 72.3146 0.102451 72.2208 0.138703L72.1396 0.170751L12.1646 23.6275C11.1653 24.0205 10.6657 25.0794 10.9026 26.0961C10.8451 26.2884 10.8086 26.4891 10.8086 26.6961V103.835C10.8086 104.623 11.2441 105.349 11.9382 105.721L71.9943 137.751C72.0926 137.802 72.1971 137.832 72.2996 137.868C72.3529 137.887 72.4041 137.913 72.4598 137.928C72.6371 137.973 72.8187 138.001 73.0002 138.001C73.1817 138.001 73.3632 137.973 73.5406 137.928C73.596 137.913 73.6472 137.885 73.7008 137.868C73.8033 137.832 73.9078 137.804 74.0061 137.751L134.062 105.721C134.758 105.349 135.192 104.623 135.192 103.835V26.6958C135.192 26.4888 135.153 26.2902 135.098 26.0958C135.333 25.0815 134.833 24.0203 133.832 23.6275ZM72.9981 52.1041L17.1206 26.2752L73.0002 4.4222L128.878 26.2752L72.9981 52.1041ZM15.0771 30.0378L70.8627 55.8221V132.305L15.0771 102.556V30.0378ZM130.919 102.556L75.1333 132.305V55.8218L130.919 30.0375V102.556Z" fill="#AE5CFF"/>
<g filter="url(#filter1_d)">
<path d="M61.3636 77.7616C61.074 78.3811 60.6202 78.7569 60.0024 78.8892C59.4027 79.0301 58.7197 78.9212 57.9533 78.5626C57.6978 78.4431 57.4582 78.3134 57.2344 78.1736C57.0174 78.0194 56.8037 77.858 56.5935 77.6894C56.4382 77.2129 56.3953 76.71 56.4648 76.1807C56.5594 75.6456 56.6664 75.1075 56.7859 74.5665C56.9304 74.0196 57.05 73.4786 57.1445 72.9435C57.2458 72.3939 57.2471 71.8678 57.1485 71.3652C57.0749 70.8568 56.8547 70.3763 56.488 69.9238C56.1463 69.4655 55.5831 69.0527 54.7985 68.6856C54.3058 68.4551 53.7928 68.2678 53.2597 68.1237C52.7516 67.9738 52.242 67.7792 51.7311 67.5402C51.4756 67.4207 51.1745 67.2798 50.8278 67.1176C50.4878 66.9409 50.142 66.7528 49.7906 66.5533C49.464 66.3478 49.15 66.1395 48.8485 65.9282C48.547 65.7169 48.3136 65.5024 48.1485 65.2847C48.1073 65.2303 48.0261 65.166 47.9051 65.0918C47.8024 65.0262 47.678 64.9592 47.532 64.8909C47.411 64.8167 47.2775 64.7455 47.1315 64.6772C47.0038 64.6174 46.9125 64.5747 46.8578 64.5491C46.3103 64.293 45.8623 64.1097 45.5136 63.9992C45.1832 63.8973 44.8734 63.8226 44.5842 63.7751C44.3133 63.7361 44.0174 63.703 43.6965 63.6758C43.4007 63.6427 42.9919 63.5656 42.4703 63.4444C42.0899 63.3542 41.794 63.3211 41.5826 63.3451C41.3895 63.3777 41.2319 63.4532 41.1098 63.5716C40.9944 63.6756 40.8929 63.8213 40.8054 64.0086C40.736 64.2044 40.635 64.4205 40.5023 64.6568C40.4032 64.8211 40.3041 64.9855 40.205 65.1498C40.1309 65.3083 40.0535 65.4739 39.9726 65.6468C39.7302 66.1654 39.5059 66.6925 39.2999 67.2282C39.0939 67.7639 38.8663 68.2982 38.6171 68.8312C38.4622 69.1625 38.265 69.4653 38.0256 69.7395C37.8044 70.0223 37.6164 70.3294 37.4615 70.6607C37.32 70.9632 37.3045 71.2105 37.4148 71.4026C37.5252 71.5947 37.6672 71.7665 37.841 71.918C38.0148 72.0695 38.167 72.2197 38.2975 72.3686C38.4463 72.526 38.4702 72.7128 38.3692 72.9288C38.4902 73.003 38.6021 73.0729 38.7048 73.1385C38.8326 73.1983 38.9603 73.2581 39.0881 73.3178C39.6903 73.5996 40.3228 73.8165 40.9856 73.9686C41.6551 74.1063 42.3088 74.2541 42.9467 74.4121C43.3453 74.5108 43.7076 74.4257 44.0335 74.1568C44.3594 73.888 44.6507 73.5502 44.9075 73.1437C45.1711 72.7227 45.4039 72.2962 45.606 71.864C45.808 71.4318 45.9903 71.1133 46.1529 70.9085C46.2769 70.7383 46.4432 70.5966 46.6518 70.4835C46.8786 70.3789 47.1227 70.3088 47.384 70.2731C47.6454 70.2373 47.9115 70.2389 48.1824 70.2779C48.4601 70.3025 48.7175 70.3702 48.9548 70.4812C49.2102 70.6008 49.4181 70.7507 49.5785 70.931C49.9058 71.2773 50.0944 71.6113 50.1441 71.9331C50.2188 72.2489 50.2162 72.5637 50.1362 72.8775C50.0563 73.1912 49.9364 73.495 49.7767 73.789C49.6353 74.0915 49.5154 74.3954 49.4172 74.7006C49.2901 75.1151 49.139 75.5097 48.9639 75.8842C48.6405 76.5757 48.2783 77.2314 47.8773 77.8514C47.4944 78.4799 47.1414 79.1398 46.818 79.8313C46.6429 80.2058 46.4985 80.586 46.3849 80.9717C46.2712 81.3575 46.2032 81.7646 46.1808 82.193C46.1508 82.495 46.0853 82.754 45.9843 82.9701C45.8697 83.215 45.7221 83.4356 45.5414 83.632C45.3788 83.8368 45.2403 84.0617 45.1258 84.3066C45.0585 84.4507 45.0036 84.5918 44.9612 84.73C44.9438 84.8623 44.9015 85.0005 44.8341 85.1445C44.7331 85.3606 44.5523 85.557 44.2918 85.7336C44.0563 85.9043 43.791 86.0435 43.496 86.1513C43.2077 86.2446 42.8964 86.2921 42.562 86.2937C42.2459 86.3038 41.9693 86.2534 41.732 86.1424C41.4036 85.9887 41.1405 85.7427 40.9428 85.4044C40.7701 85.0603 40.6349 84.7073 40.5372 84.3456C40.4394 83.9838 40.3806 83.6578 40.3606 83.3676C40.3589 83.0859 40.3681 82.9234 40.3883 82.8802C40.422 82.8082 40.4821 82.7748 40.5686 82.7802C40.68 82.7796 40.7881 82.7863 40.8928 82.8002C41.0042 82.7997 41.1066 82.7949 41.1998 82.7858C41.318 82.7709 41.4006 82.713 41.4478 82.6121C41.4814 82.5401 41.4594 82.4683 41.3816 82.3968C41.3288 82.3195 41.2544 82.2408 41.1584 82.1607C41.0874 82.0748 41.0197 81.9817 40.9554 81.8814C40.9161 81.7752 40.9268 81.6573 40.9874 81.5277C41.0345 81.4268 41.0865 81.3633 41.1432 81.3372C41.2066 81.2967 41.2724 81.2748 41.3406 81.2716C41.4089 81.2684 41.468 81.2609 41.5179 81.2492C41.5679 81.2375 41.603 81.21 41.6232 81.1668C41.6771 81.0515 41.6806 80.8776 41.6336 80.6449C41.5935 80.3979 41.5134 80.141 41.3935 79.8742C41.2919 79.616 41.1494 79.3737 40.966 79.1475C40.8077 78.9154 40.6372 78.7567 40.4548 78.6713C40.181 78.5432 39.8871 78.4584 39.573 78.4167C39.2838 78.3692 38.9932 78.2772 38.7013 78.1406C38.464 78.0296 38.2528 77.8868 38.0675 77.7124C37.9004 77.5464 37.7165 77.4165 37.5158 77.3226C37.3333 77.2372 37.1022 77.2081 36.8226 77.2353C36.5498 77.2481 36.2634 77.2897 35.9636 77.3601C35.6888 77.4247 35.4106 77.4964 35.1291 77.5754C34.8725 77.6484 34.6659 77.7098 34.5092 77.7594C34.3094 77.8063 34.1464 77.9408 34.0204 78.1627C33.9011 78.3703 33.8044 78.5533 33.7303 78.7117C33.4946 79.2159 33.2987 79.73 33.1427 80.2539C33.0116 80.772 32.8282 81.2831 32.5925 81.7873C32.4915 82.0034 32.3813 82.2152 32.262 82.4228C32.161 82.6388 32.0599 82.8549 31.9589 83.071C31.8781 83.2439 31.7737 83.4672 31.6457 83.7409C31.536 84.0231 31.4536 84.3182 31.3986 84.626C31.3437 84.9339 31.3386 85.23 31.3836 85.5144C31.4285 85.7988 31.5653 86.0295 31.7938 86.2067C32.1299 86.4868 32.5419 86.7235 33.0298 86.9166L33.5773 87.1728C34.0517 87.3947 34.482 87.6399 34.868 87.9083C35.2541 88.1767 35.4858 88.5134 35.5634 88.9184C35.6313 89.2486 35.6311 89.5821 35.5627 89.9188C35.5192 90.2496 35.4301 90.559 35.2954 90.8471C35.2145 91.02 35.0962 91.2017 34.9405 91.3921C34.8029 91.5911 34.6265 91.7544 34.4112 91.8819C34.2209 92.0035 33.9951 92.0822 33.7337 92.118C33.4973 92.1478 33.2423 92.0987 32.9686 91.9707C32.4394 91.7231 31.8972 91.408 31.3422 91.0254C30.7986 90.6658 30.2349 90.3493 29.6509 90.0761C29.1947 89.8627 28.7274 89.6967 28.2491 89.5782C27.4633 89.4037 26.7044 89.1716 25.9725 88.8818C25.2406 88.5921 24.4915 88.2679 23.725 87.9093C23.3783 87.7471 22.9711 87.5478 22.5034 87.3114C22.0357 87.075 21.603 86.8112 21.2055 86.5198C20.8194 86.2514 20.505 85.9726 20.2621 85.6834C20.0442 85.3884 19.9993 85.104 20.1273 84.8303C20.2687 84.5278 20.4476 84.2164 20.664 83.8963C20.8804 83.5762 21.1381 83.3105 21.4371 83.0992C21.7543 82.8965 22.1117 82.7741 22.5095 82.732C22.9073 82.6898 23.3617 82.7883 23.8727 83.0274C24.0186 83.0957 24.1704 83.1754 24.3279 83.2667C24.4854 83.3579 24.6463 83.442 24.8105 83.5188C25.1572 83.681 25.4329 83.7573 25.6375 83.7477C25.8489 83.7237 26.0363 83.6797 26.1997 83.6157C26.3631 83.5517 26.5231 83.4949 26.6797 83.4453C26.8364 83.3957 27.0309 83.4077 27.2634 83.4813C27.4424 83.0033 27.5965 82.5311 27.7255 82.0648C27.8796 81.5926 28.0644 81.126 28.2799 80.665C28.4618 80.2761 28.6859 79.9157 28.9523 79.5838C29.2187 79.252 29.5513 78.9687 29.9502 78.7339C29.8418 78.4901 29.8329 78.1524 29.9235 77.7207C30.0141 77.2891 30.1355 76.8631 30.2876 76.4426C30.4579 76.0307 30.6105 75.6807 30.7452 75.3926C30.8866 75.0901 30.954 74.9461 30.9473 74.9605C31.0618 74.7156 31.2185 74.4992 31.4175 74.3114C31.6415 74.1178 31.8108 73.8985 31.9253 73.6536C31.9792 73.5383 32.0081 73.429 32.012 73.3255C32.0409 73.2161 32.0823 73.1038 32.1362 72.9885C32.217 72.8157 32.2925 72.7018 32.3627 72.6468C32.4329 72.5919 32.5021 72.5628 32.5703 72.5596C32.6385 72.5564 32.6976 72.5489 32.7476 72.5372C32.8043 72.511 32.8596 72.4404 32.9134 72.3251C33.0818 71.965 33.183 71.5822 33.2169 71.1767C33.2758 70.7653 33.3928 70.3723 33.5679 69.9978C33.7229 69.6665 33.9109 69.3594 34.1321 69.0767C34.3783 68.788 34.5788 68.478 34.7337 68.1467C35.0368 67.4985 35.2909 66.8361 35.4961 66.1596C35.7262 65.4772 35.9962 64.8046 36.306 64.142C36.4609 63.8107 36.5962 63.4262 36.7118 62.9887C36.8341 62.5368 36.8791 62.0838 36.8468 61.6298C36.8144 61.1757 36.6822 60.7452 36.4499 60.338C36.2177 59.9309 35.837 59.6036 35.3078 59.356C35.0523 59.2365 34.7901 59.1313 34.5212 59.0406C34.2772 58.944 34.0275 58.836 33.772 58.7164C33.5348 58.6055 33.3134 58.4843 33.1079 58.3531C32.9091 58.2074 32.7363 58.03 32.5895 57.8208C32.6809 57.53 32.7234 57.2251 32.7169 56.9061C32.7104 56.587 32.7712 56.2906 32.8992 56.0169C32.9935 55.8152 33.1713 55.6965 33.4326 55.6608C33.7122 55.6336 34.0331 55.6608 34.3953 55.7425C34.7574 55.8241 35.146 55.9445 35.5609 56.1035C35.9941 56.271 36.4205 56.453 36.8403 56.6494C37.3695 56.897 37.8554 57.1419 38.2982 57.3841C38.7659 57.6205 39.1184 57.7942 39.3556 57.9052C39.6111 58.0247 39.9247 58.1627 40.2964 58.319C40.6863 58.4839 41.0739 58.6301 41.4591 58.7577C41.8692 58.8793 42.2564 58.9551 42.6205 58.985C42.9846 59.0149 43.2902 58.956 43.5372 58.8082C43.7562 58.9107 43.9309 59.0363 44.0615 59.1852C44.1988 59.3197 44.3293 59.4685 44.4532 59.6318C44.5837 59.7807 44.7143 59.9295 44.8448 60.0784C44.9821 60.2129 45.1511 60.327 45.3519 60.421C45.6074 60.5405 45.8648 60.6083 46.1242 60.6243C46.4086 60.6344 46.6785 60.6993 46.934 60.8188C47.1712 60.9298 47.3608 61.0712 47.5029 61.243C47.6517 61.4004 47.8447 61.5346 48.082 61.6456C48.5747 61.8761 49.0785 62.0592 49.5933 62.1947C50.1265 62.3388 50.6596 62.4829 51.1927 62.627C51.7326 62.7566 52.2599 62.8893 52.7748 63.0248C53.3079 63.1689 53.8209 63.3562 54.3136 63.5867C54.6603 63.7489 54.9594 63.9416 55.211 64.1646C55.4875 64.3818 55.7064 64.651 55.8676 64.9722C56.7303 65.0773 57.6087 65.3391 58.5029 65.7574C58.6124 65.8087 58.8429 65.9341 59.1944 66.1336C59.5459 66.3332 59.9122 66.5485 60.2935 66.7795C60.6815 66.9962 61.0296 67.203 61.3379 67.3998C61.6461 67.5967 61.8084 67.7253 61.8247 67.7856C61.9005 67.9089 61.9254 68.0698 61.8993 68.2682C61.8732 68.4667 61.8313 68.6753 61.7735 68.8941C61.7407 69.107 61.7078 69.3198 61.675 69.5327C61.6489 69.7312 61.6704 69.8993 61.7395 70.0369C61.7856 70.1287 61.8566 70.2146 61.9526 70.2947C62.0736 70.3688 62.1821 70.4459 62.2782 70.526C62.3742 70.606 62.4452 70.6919 62.4913 70.7837C62.5623 70.8696 62.58 70.9744 62.5444 71.0982C62.4192 71.461 62.2883 71.8124 62.1516 72.1522C62.0217 72.4777 61.9397 72.8432 61.9058 73.2486C61.8739 73.6024 61.8534 73.9791 61.8445 74.3787C61.8356 74.7783 61.8175 75.1737 61.7903 75.5648C61.7814 75.9644 61.7451 76.3512 61.6814 76.7252C61.6177 77.0993 61.5118 77.4447 61.3636 77.7616ZM22.7355 85.1025C22.8433 84.872 22.8737 84.6405 22.8268 84.4079C22.7982 84.1838 22.6355 83.9847 22.3387 83.8108C22.3118 83.8684 22.2757 83.9218 22.2305 83.9708C22.2103 84.0141 22.1867 84.0645 22.1598 84.1221C22.052 84.3526 22.0125 84.5799 22.0411 84.804C22.088 85.0366 22.2599 85.2399 22.5566 85.4138C22.5836 85.3562 22.6071 85.3058 22.6273 85.2626C22.6725 85.2135 22.7086 85.1602 22.7355 85.1025Z" fill="#fff"/>
</g>
<g filter="url(#filter2_d)">
<path d="M119.467 71.2242C119.504 71.3129 119.54 71.4539 119.574 71.6474C119.602 71.8261 119.611 72.0128 119.6 72.2076C119.59 72.4025 119.553 72.5906 119.491 72.772C119.423 72.9386 119.311 73.0542 119.155 73.1187C119.077 73.151 119.006 73.1718 118.941 73.1812C118.877 73.1906 118.806 73.2115 118.728 73.2437C118.591 73.3002 118.486 73.4044 118.412 73.5562C118.351 73.6852 118.28 73.8444 118.198 74.0339C118.13 74.2005 118.03 74.3718 117.897 74.5479C117.778 74.7011 117.592 74.8301 117.338 74.935C117.241 74.9753 117.089 75.021 116.881 75.0721C117.082 75.3354 117.262 75.6068 117.424 75.8862C117.585 76.1656 117.727 76.4531 117.849 76.7486C118.045 77.2215 118.198 77.7031 118.31 78.1935C118.415 78.6691 118.514 79.1561 118.606 79.6546C118.698 80.153 118.8 80.6474 118.912 81.1378C119.023 81.6281 119.174 82.1024 119.363 82.5605C119.59 83.1073 119.862 83.6265 120.179 84.1181C120.516 84.6017 120.798 85.1169 121.024 85.6637C121.122 85.9001 121.197 86.1634 121.248 86.4536C121.294 86.7291 121.284 87.0099 121.22 87.2961C121.175 87.5742 121.057 87.8396 120.865 88.0922C120.672 88.3448 120.391 88.5478 120.021 88.701C119.475 88.9269 118.994 88.9788 118.578 88.8566C118.176 88.7116 117.806 88.5357 117.469 88.3289C117.146 88.0992 116.845 87.895 116.565 87.7164C116.299 87.515 116.03 87.4707 115.757 87.5836C115.62 87.6401 115.469 87.7718 115.304 87.9787C115.152 88.1628 114.979 88.3812 114.787 88.6338C114.595 88.8865 114.37 89.1438 114.113 89.4059C113.876 89.6599 113.611 89.8736 113.317 90.047C112.971 90.2593 112.751 90.4455 112.658 90.6054C112.564 90.7653 112.47 90.9252 112.377 91.0851C112.277 91.2302 112.106 91.3962 111.864 91.583C111.641 91.7618 111.208 91.9842 110.564 92.2504C110.135 92.4279 109.7 92.5906 109.259 92.7385C108.838 92.8783 108.412 93.0369 107.984 93.2144C107.672 93.3435 107.366 93.4873 107.066 93.6459C106.786 93.7965 106.49 93.9363 106.178 94.0653C105.691 94.267 105.279 94.4028 104.943 94.4727C104.6 94.5279 104.281 94.5562 103.984 94.5576C103.708 94.551 103.412 94.5524 103.096 94.5619C102.793 94.5485 102.419 94.5822 101.973 94.6629C101.631 94.7181 101.353 94.7638 101.14 94.8002C100.92 94.8217 100.72 94.8352 100.54 94.8406C100.353 94.8313 100.164 94.8145 99.9711 94.7904C99.7723 94.7515 99.5126 94.7032 99.1919 94.6455C98.9993 94.6213 98.7871 94.6053 98.5555 94.5973C98.3239 94.5893 98.102 94.5772 97.8899 94.5612C97.6716 94.5303 97.4698 94.484 97.2844 94.4223C97.1185 94.3524 96.9892 94.2329 96.8963 94.0636C96.8218 93.9387 96.7528 93.8547 96.6893 93.8118C96.6259 93.7688 96.5491 93.7486 96.4588 93.7514C96.3881 93.746 96.301 93.7561 96.1974 93.7817C96.1072 93.7844 95.9816 93.7844 95.8207 93.7817C95.4767 93.6125 95.1882 93.4118 94.955 93.1794C94.7219 92.947 94.4918 92.722 94.2648 92.5044C94.0316 92.272 93.7753 92.0665 93.4959 91.8879C93.2104 91.6945 92.8464 91.5596 92.4038 91.4831C92.4011 91.3111 92.3631 91.1365 92.2897 90.9592C92.1613 90.6488 91.961 90.3855 91.6889 90.1693C91.4106 89.9383 91.116 89.7227 90.8048 89.5226C90.5071 89.2996 90.2191 89.0726 89.9409 88.8416C89.6565 88.5958 89.444 88.303 89.3034 87.9631C89.2178 87.7562 89.1517 87.5413 89.105 87.3182C89.0779 87.0872 89.0216 86.8682 88.9359 86.6613C88.8198 86.3805 88.6579 86.1273 88.4504 85.9016C88.2623 85.6679 88.0676 85.4456 87.8662 85.2347C87.6587 85.009 87.4511 84.7834 87.2436 84.5577C87.0555 84.324 86.9034 84.0667 86.7873 83.7859C86.7506 83.6973 86.7139 83.6086 86.6772 83.5199C86.6539 83.4084 86.6336 83.3043 86.6164 83.2076C86.5133 82.6272 86.3778 82.0515 86.2101 81.4805C86.0423 80.9096 85.8776 80.346 85.716 79.7898C85.5482 79.2188 85.3932 78.6512 85.2511 78.087C85.1028 77.5079 84.9966 76.9201 84.9324 76.3236C84.8744 75.7419 84.7999 75.1756 84.7089 74.6247C84.6375 74.0658 84.4948 73.5278 84.2808 73.0106C84.3695 72.7835 84.5038 72.5288 84.6839 72.2467C84.8834 71.9564 85.0732 71.6702 85.2533 71.388C85.4467 71.0829 85.6011 70.794 85.7166 70.5213C85.8454 70.2257 85.8993 69.9697 85.8783 69.7534C85.8573 69.5371 85.9154 69.2361 86.0527 68.8505C86.2094 68.4568 86.3954 68.051 86.6106 67.6331C86.8453 67.2071 87.0953 66.8181 87.3606 66.466C87.6454 66.1059 87.9084 65.8586 88.1496 65.7242C88.2604 65.661 88.3841 65.6012 88.5205 65.5447C88.6765 65.4802 88.8068 65.4089 88.9116 65.331C89.0358 65.245 89.1344 65.1522 89.2074 65.0528C89.2804 64.9533 89.2894 64.8371 89.2344 64.7041C89.1916 64.6007 89.1165 64.5019 89.0091 64.4079C90.0312 63.8985 91.0222 63.3413 91.982 62.7365C92.9418 62.1316 93.948 61.6114 95.0007 61.1758C95.2347 61.079 95.6081 60.9332 96.1211 60.7382C96.634 60.5433 97.1623 60.3853 97.7058 60.2642C98.2627 60.1203 98.7698 60.049 99.2269 60.0502C99.6779 60.0367 99.9585 60.1629 100.069 60.4289L100.114 60.5397C100.167 60.5007 100.222 60.4692 100.281 60.445C100.359 60.4127 100.427 60.3845 100.485 60.3603C100.797 60.2312 101.118 60.1505 101.447 60.1182C101.776 60.0859 102.096 60.0052 102.408 59.8761C102.72 59.747 103.039 59.6066 103.364 59.4547C103.703 59.2799 104.026 59.0944 104.333 58.8982C104.653 58.6791 104.925 58.454 105.149 58.2228C105.393 57.9836 105.575 57.735 105.697 57.477C106.126 57.2996 106.544 57.3169 106.951 57.5291C107.352 57.7265 107.72 58.0072 108.053 58.3712C108.386 58.7353 108.674 59.1268 108.916 59.546C109.171 59.9422 109.348 60.2586 109.446 60.4951C109.592 60.8497 109.7 61.2205 109.769 61.6074C109.857 61.9863 109.884 62.382 109.849 62.7944C109.967 62.9704 110.116 63.1081 110.294 63.2075C110.491 63.2988 110.689 63.3901 110.887 63.4814C111.098 63.5499 111.295 63.6412 111.48 63.7554C111.658 63.8547 111.786 64.0005 111.866 64.1926C111.84 64.515 111.911 64.9356 112.08 65.4541C112.262 65.9499 112.408 66.4691 112.519 67.0119C112.643 67.5318 112.654 68.0289 112.554 68.5032C112.466 68.9547 112.14 69.2974 111.575 69.5313C111.185 69.6926 110.814 69.7337 110.461 69.6545C110.103 69.5605 109.803 69.4162 109.563 69.2214L109.631 69.2194C109.884 69.1145 109.974 68.9734 109.901 68.7961C109.882 68.7518 109.79 68.7209 109.623 68.7035C109.475 68.678 109.308 68.6606 109.122 68.6512C108.929 68.6271 108.739 68.6103 108.553 68.601C108.36 68.5768 108.21 68.5439 108.101 68.5023C107.884 68.4191 107.658 68.2875 107.424 68.1075C107.19 67.9275 106.969 67.7247 106.761 67.499C106.548 67.2586 106.357 67.0175 106.188 66.7757C106.013 66.5191 105.877 66.2726 105.779 66.0361C105.749 65.9622 105.721 65.8957 105.697 65.8366C105.672 65.7775 105.657 65.7144 105.653 65.6472L105.632 65.6815C105.568 65.6909 105.401 65.6473 105.133 65.5506C104.884 65.4459 104.6 65.3384 104.281 65.2284C103.974 65.0954 103.674 64.9773 103.38 64.8739C103.1 64.7477 102.905 64.6637 102.797 64.6221C102.285 64.4879 101.755 64.3953 101.209 64.3444C100.663 64.2935 100.134 64.2009 99.6217 64.0667C99.4963 64.2051 99.3581 64.3402 99.2071 64.4719C99.0695 64.5807 98.913 64.6715 98.7375 64.7441C98.5816 64.8086 98.4457 64.8389 98.3299 64.8348C98.2079 64.8161 98.086 64.7973 97.9641 64.7785C97.836 64.745 97.7013 64.7228 97.5599 64.7121C97.4185 64.7014 97.2503 64.7364 97.0553 64.817C96.6265 64.9945 96.2226 65.2049 95.8438 65.4481C95.4845 65.6833 95.0904 65.8897 94.6616 66.0671C94.2132 66.2527 93.7373 66.3717 93.2339 66.4242C92.75 66.4687 92.2741 66.5877 91.8063 66.7813C91.7673 66.7974 91.7119 66.829 91.64 66.8761C91.5876 66.915 91.545 66.95 91.5121 66.9809C91.5867 67.1058 91.6874 67.2113 91.8143 67.2972C91.9412 67.3832 92.0321 67.4926 92.0872 67.6256C92.1728 67.8325 92.1383 68.0804 91.9839 68.3693C91.849 68.6502 91.6622 68.9438 91.4237 69.2502C91.2047 69.5485 90.9759 69.8509 90.7373 70.1572C90.5122 70.4408 90.3522 70.6887 90.2574 70.901C90.1286 71.1966 90.0448 71.4909 90.0062 71.7838C89.9871 72.0686 89.968 72.3535 89.9488 72.6383C89.9236 72.9084 89.8563 73.1872 89.747 73.4747C89.6571 73.7542 89.474 74.029 89.1976 74.2991C89.482 74.5449 89.6823 74.8082 89.7985 75.089C89.8841 75.2959 89.9471 75.5035 89.9876 75.7117C90.022 75.9052 90.082 76.1053 90.1676 76.3122C90.3633 76.7851 90.6077 77.2378 90.9008 77.6704C91.1878 78.0882 91.4292 78.5335 91.6249 79.0064C91.7838 79.3906 91.8941 79.795 91.9556 80.2195C92.0305 80.6212 92.0889 81.0384 92.1309 81.471C92.1669 81.8888 92.2156 82.31 92.2771 82.7346C92.352 83.1363 92.4689 83.5292 92.6279 83.9135C92.7685 84.2533 92.9518 84.5583 93.1776 84.8283C93.423 85.0902 93.6751 85.3407 93.9338 85.5798C94.1926 85.8189 94.4257 86.0513 94.6333 86.2769C94.8603 86.4945 95.0227 86.7216 95.1206 86.958C95.1878 87.1206 95.2356 87.2912 95.2639 87.4699C95.2921 87.6485 95.3399 87.8192 95.4072 87.9817C95.6701 88.6172 96.0785 89.0799 96.6323 89.37C97.18 89.6453 97.7673 89.8782 98.3941 90.0689C99.0405 90.2514 99.6704 90.4494 100.284 90.6629C100.891 90.8616 101.386 91.2021 101.768 91.6843C102.042 91.519 102.316 91.3799 102.589 91.2669C102.939 91.1217 103.303 91.0061 103.678 90.92C104.053 90.8339 104.425 90.7667 104.793 90.7182C105.155 90.655 105.524 90.5803 105.899 90.4942C106.274 90.4081 106.638 90.2925 106.988 90.1473C107.729 89.8408 108.434 89.4194 109.102 88.8832C109.784 88.3241 110.368 87.7193 110.852 87.0689C111.356 86.4104 111.747 85.7292 112.027 85.0251C112.306 84.321 112.421 83.6592 112.37 83.0399C112.306 82.4434 112.322 81.8482 112.419 81.2543C112.462 81.0285 112.533 80.8693 112.632 80.7766C112.731 80.6839 112.826 80.6099 112.917 80.5548C113.008 80.4997 113.08 80.4527 113.132 80.4137C113.185 80.3747 113.193 80.3109 113.156 80.2222C113.119 80.1336 113.017 80.0805 112.85 80.0631C112.703 80.0376 112.605 79.9658 112.556 79.8475C112.537 79.8032 112.555 79.7354 112.609 79.644C112.656 79.5378 112.71 79.4202 112.771 79.2913C112.851 79.1542 112.906 79.0104 112.935 78.8599C112.958 78.6947 112.939 78.5381 112.877 78.3904C112.749 78.08 112.528 77.8772 112.215 77.7819C111.901 77.6866 111.542 77.645 111.136 77.6572C110.724 77.6546 110.292 77.6863 109.839 77.7523C109.401 77.7954 108.972 77.8082 108.554 77.7909C108.136 77.7735 107.761 77.695 107.429 77.5554C107.091 77.401 106.84 77.1242 106.675 76.7252C106.54 76.4001 106.537 76.0898 106.666 75.7942C106.808 75.4757 107.018 75.1814 107.294 74.9113C107.59 74.6331 107.92 74.3838 108.286 74.1634C108.645 73.9281 108.991 73.7158 109.324 73.5262C109.545 73.3999 109.777 73.2433 110.02 73.0565C110.256 72.8549 110.495 72.6607 110.738 72.4739C110.974 72.2723 111.197 72.0935 111.406 71.9376C111.629 71.7589 111.838 71.6292 112.033 71.5485C112.306 71.4356 112.597 71.367 112.907 71.3427C113.21 71.3037 113.504 71.2425 113.79 71.1591C114.178 71.0502 114.661 70.9197 115.237 70.7678C115.833 70.6077 116.415 70.4968 116.983 70.4348C117.551 70.3729 118.063 70.3949 118.517 70.5009C118.986 70.5841 119.302 70.8252 119.467 71.2242Z" fill="#fff"/>
</g>
<path d="M57.0396 32.811C57.3621 32.9372 57.5865 33.1125 57.7127 33.3368C57.8529 33.5612 57.9231 33.8066 57.9231 34.073C57.9231 34.3535 57.86 34.641 57.7337 34.9354C57.6216 35.2159 57.4673 35.4753 57.271 35.7137C57.0747 35.9521 56.8573 36.1484 56.6189 36.3027C56.3805 36.4429 56.1492 36.513 55.9248 36.513C55.7565 36.513 55.5392 36.4569 55.2727 36.3447C55.0203 36.2185 54.7539 36.0643 54.4734 35.882C54.207 35.6997 53.9476 35.5034 53.6951 35.293C53.4567 35.0827 53.2745 34.8794 53.1482 34.683H52.98C52.8678 34.683 52.7626 34.69 52.6645 34.7041C52.5663 34.7181 52.4611 34.7251 52.3489 34.7251C52.1105 34.7251 51.8862 34.6199 51.6758 34.4096C51.4515 34.1992 51.2481 34.052 51.0658 33.9679C50.8976 33.8837 50.7223 33.8206 50.54 33.7786C50.3717 33.7365 50.1964 33.6944 50.0141 33.6523C49.8458 33.6103 49.6495 33.5261 49.4252 33.3999C49.0746 33.2036 48.745 32.9652 48.4365 32.6848C48.128 32.4043 47.8406 32.1238 47.5741 31.8434C47.0132 31.619 46.5154 31.4227 46.0807 31.2544C45.646 31.0721 45.2253 30.8828 44.8186 30.6865C44.426 30.4902 44.0333 30.2658 43.6407 30.0134C43.248 29.761 42.8133 29.4384 42.3366 29.0458L42.3576 28.7303C42.3576 28.3236 42.2945 27.931 42.1683 27.5524C42.0561 27.1737 42 26.7881 42 26.3955C42 26.1851 42.0351 26.0239 42.1052 25.9117C42.1893 25.7855 42.2875 25.6803 42.3997 25.5962C42.5259 25.512 42.6591 25.4419 42.7993 25.3858C42.9536 25.3157 43.1008 25.2316 43.241 25.1334H43.83C43.8861 25.0773 43.9141 25.0072 43.9141 24.9231C43.9282 24.8389 43.9352 24.7548 43.9352 24.6706C43.9492 24.5865 43.9632 24.5094 43.9772 24.4393C44.0053 24.3551 44.0614 24.292 44.1455 24.25C44.2857 24.1658 44.426 24.1097 44.5662 24.0817C44.7064 24.0536 44.8467 24.0256 44.9869 23.9975C45.1411 23.9555 45.2954 23.9064 45.4496 23.8503C45.6039 23.7942 45.7722 23.696 45.9545 23.5558C46.1087 23.4436 46.263 23.3315 46.4172 23.2193C46.5855 23.0931 46.7538 22.9598 46.9221 22.8196C47.1044 22.6794 47.3077 22.5672 47.5321 22.4831C47.7564 22.3849 47.9808 22.3008 48.2052 22.2307C48.4295 22.1465 48.6469 22.0624 48.8572 21.9782C49.0816 21.8801 49.2849 21.7469 49.4672 21.5786C49.6215 21.4384 49.7547 21.3051 49.8669 21.1789C49.9791 21.0387 50.0912 20.9125 50.2034 20.8003C50.3156 20.6741 50.4348 20.5549 50.561 20.4427C50.7012 20.3305 50.8765 20.2254 51.0869 20.1272C51.4515 19.9589 51.7319 19.8327 51.9282 19.7486C52.1246 19.6504 52.2648 19.5733 52.3489 19.5172C52.4471 19.4611 52.5102 19.4191 52.5382 19.391C52.5803 19.3489 52.6154 19.3069 52.6434 19.2648C52.6715 19.2227 52.7205 19.1666 52.7907 19.0965C52.8608 19.0124 52.98 18.8932 53.1482 18.7389C53.7232 18.2341 54.249 17.8835 54.7258 17.6872C55.2166 17.4769 55.6513 17.3717 56.03 17.3717C56.3244 17.3717 56.5839 17.4278 56.8082 17.54C57.0466 17.6381 57.2429 17.7714 57.3972 17.9396C57.5655 18.1079 57.6847 18.2972 57.7548 18.5076C57.8389 18.7179 57.881 18.9212 57.881 19.1176C57.881 19.398 57.8039 19.6504 57.6496 19.8748C57.4954 20.0851 57.257 20.2113 56.9344 20.2534C56.7241 20.2815 56.5698 20.3305 56.4717 20.4007C56.3735 20.4708 56.3034 20.5479 56.2613 20.632C56.2193 20.7022 56.1842 20.7723 56.1562 20.8424C56.1421 20.9125 56.1001 20.9616 56.03 20.9896C55.8757 21.0597 55.7215 21.1228 55.5672 21.1789C55.427 21.235 55.2797 21.2981 55.1255 21.3682C54.9993 21.4243 54.852 21.5295 54.6838 21.6838C54.5295 21.824 54.3682 21.9782 54.2 22.1465C54.0317 22.3148 53.8704 22.469 53.7162 22.6093C53.5619 22.7495 53.4357 22.8266 53.3376 22.8407C53.3235 22.8407 53.3025 22.8266 53.2745 22.7986C53.2464 22.7565 53.2113 22.7074 53.1693 22.6513C53.1412 22.5952 53.1062 22.5462 53.0641 22.5041C53.0361 22.462 53.015 22.441 53.001 22.441C52.973 22.441 52.9519 22.4831 52.9379 22.5672C52.9239 22.6513 52.9099 22.7425 52.8958 22.8407C52.8818 22.9248 52.8748 23.0159 52.8748 23.1141C52.8748 23.1982 52.8748 23.2473 52.8748 23.2613L52.5593 23.3244C52.0685 23.4366 51.6197 23.6119 51.2131 23.8503C50.8204 24.0887 50.4348 24.3481 50.0562 24.6286C49.6776 24.895 49.2989 25.1614 48.9203 25.4279C48.5417 25.6803 48.128 25.8836 47.6793 26.0379L47.7214 26.2903C47.7214 26.3043 47.6442 26.3534 47.49 26.4375C47.3357 26.5217 47.1675 26.6128 46.9852 26.711C46.8169 26.8091 46.6556 26.9003 46.5014 26.9844C46.3471 27.0686 46.27 27.1176 46.27 27.1317C46.27 27.3701 46.263 27.5243 46.249 27.5944C46.249 27.6645 46.2349 27.6996 46.2069 27.6996C46.1929 27.6996 46.1788 27.6926 46.1648 27.6786C46.1508 27.6505 46.1298 27.6365 46.1017 27.6365C46.0737 27.6365 46.0456 27.6716 46.0176 27.7417C46.0036 27.8118 45.9825 27.952 45.9545 28.1624C45.9685 28.1764 46.1087 28.2605 46.3752 28.4148C46.6416 28.555 46.9291 28.7163 47.2376 28.8986C47.5601 29.0809 47.8546 29.2491 48.121 29.4034C48.3875 29.5436 48.5347 29.6137 48.5627 29.6137C48.6329 29.6278 48.745 29.6348 48.8993 29.6348H49.32C49.6565 29.6348 49.8949 29.6768 50.0351 29.761C50.1754 29.8451 50.3016 29.9433 50.4138 30.0555C50.526 30.1676 50.6592 30.2868 50.8134 30.413C50.9817 30.5252 51.2551 30.6164 51.6338 30.6865C51.7319 30.7145 51.8371 30.7706 51.9493 30.8548C52.0755 30.9249 52.1947 31.016 52.3069 31.1282C52.4191 31.2264 52.5242 31.3315 52.6224 31.4437C52.7346 31.5559 52.8327 31.6471 52.9169 31.7172C53.1833 31.9696 53.4918 32.1589 53.8424 32.2851C54.207 32.4113 54.5786 32.5095 54.9572 32.5796C55.3358 32.6357 55.7004 32.6777 56.051 32.7058C56.4156 32.7198 56.7451 32.7549 57.0396 32.811Z" fill="#fff"/>
<path d="M83.7113 10.5145C83.7113 10.7388 83.6622 10.9352 83.564 11.1034C83.4659 11.2577 83.3326 11.3909 83.1644 11.5031C83.0101 11.6153 82.8278 11.7134 82.6175 11.7976C82.4212 11.8817 82.2178 11.9588 82.0075 12.029C82.0355 12.1411 82.0566 12.2533 82.0706 12.3655C82.0846 12.4637 82.0916 12.5688 82.0916 12.681C82.0916 13.1859 81.9233 13.6626 81.5868 14.1114C81.2643 14.5601 80.8997 14.9668 80.493 15.3314C80.4369 15.5417 80.3668 15.752 80.2826 15.9624C80.1985 16.1587 80.1003 16.355 79.9882 16.5514V16.5303C79.876 16.7547 79.7778 16.9791 79.6937 17.2034C79.6096 17.4278 79.5184 17.6451 79.4202 17.8555C79.3221 18.0658 79.2029 18.2622 79.0627 18.4445C78.9364 18.6127 78.7612 18.753 78.5368 18.8651C78.2984 19.2858 78.053 19.7135 77.8006 20.1482C77.5622 20.5689 77.2958 20.9966 77.0013 21.4313C77.0153 21.4594 77.0293 21.4944 77.0434 21.5365C77.0574 21.5646 77.0644 21.6066 77.0644 21.6627C77.0644 21.8871 77.0083 22.0834 76.8961 22.2517C76.7979 22.42 76.6788 22.5812 76.5385 22.7355V22.7144C76.4544 22.8266 76.3702 22.9318 76.2861 23.03C76.216 23.1281 76.1669 23.2403 76.1389 23.3665C75.7883 23.675 75.5289 23.9695 75.3606 24.25C75.1923 24.5304 75.0381 24.8109 74.8978 25.0913C74.7716 25.3578 74.6244 25.6312 74.4561 25.9117C74.2878 26.1781 74.0214 26.4656 73.6568 26.7741V26.9213C73.6568 27.0896 73.6007 27.2999 73.4885 27.5524C73.3904 27.8048 73.2642 28.0642 73.1099 28.3306C72.9557 28.583 72.7874 28.8284 72.6051 29.0668C72.4228 29.3052 72.2615 29.4945 72.1213 29.6348V29.6768C72.1213 30.1115 71.9811 30.5252 71.7006 30.9179C71.4201 31.3105 71.1046 31.6681 70.7541 31.9906C70.6419 32.0888 70.5577 32.201 70.5016 32.3272C70.4456 32.4534 70.3895 32.5866 70.3334 32.7268C70.2773 32.853 70.2142 32.9863 70.1441 33.1265C70.0739 33.2527 69.9758 33.3649 69.8496 33.463C69.8075 33.8136 69.7444 34.1221 69.6603 34.3885C69.5761 34.655 69.478 34.9144 69.3658 35.1668C69.2676 35.4052 69.1484 35.6436 69.0082 35.882C68.882 36.1204 68.7348 36.3798 68.5665 36.6603L68.3561 36.9758C68.3281 37.1441 68.2159 37.3965 68.0196 37.733C67.8373 38.0555 67.6199 38.3991 67.3675 38.7637C67.1291 39.1283 66.8837 39.4859 66.6313 39.8365C66.3789 40.173 66.1686 40.4324 66.0003 40.6147C65.9722 40.769 65.8951 41.0074 65.7689 41.3299C65.6567 41.6384 65.5025 41.9469 65.3061 42.2554C65.1098 42.578 64.8714 42.8584 64.591 43.0968C64.3105 43.3352 63.988 43.4544 63.6234 43.4544C63.3289 43.4544 63.0555 43.3843 62.803 43.244C62.5647 43.1178 62.3613 42.9496 62.193 42.7392C62.0248 42.5429 61.8916 42.3255 61.7934 42.0871C61.7093 41.8488 61.6672 41.6174 61.6672 41.393C61.6672 40.9863 61.7724 40.6217 61.9827 40.2992C62.193 39.9767 62.4314 39.6682 62.6979 39.3737C63.0344 38.9811 63.3009 38.6235 63.4972 38.301C63.6935 37.9644 63.9319 37.6769 64.2124 37.4385C64.3105 37.3264 64.4017 37.2002 64.4858 37.0599C64.584 36.9197 64.6961 36.7514 64.8223 36.5551C64.9486 36.3447 65.1028 36.0993 65.2851 35.8189C65.4674 35.5384 65.6988 35.2019 65.9792 34.8092C66.3298 34.3465 66.6313 33.9258 66.8837 33.5472C67.1502 33.1686 67.3885 32.804 67.5989 32.4534C67.8092 32.0888 68.0056 31.7242 68.1879 31.3596C68.3842 30.981 68.5805 30.5673 68.7768 30.1186C68.9311 29.768 69.1274 29.4104 69.3658 29.0458C69.6042 28.6672 69.8426 28.3096 70.081 27.973C70.3193 27.6225 70.5367 27.2859 70.733 26.9634C70.9434 26.6409 71.0906 26.3464 71.1747 26.08H71.1537C71.1958 25.9397 71.2308 25.8065 71.2589 25.6803C71.301 25.5401 71.3711 25.3928 71.4692 25.2386V25.2596C71.6235 24.9932 71.7427 24.8109 71.8268 24.7127V24.7337C71.9109 24.6216 71.9811 24.5164 72.0372 24.4182C72.1073 24.3201 72.1423 24.2009 72.1423 24.0606V23.8293C72.2685 23.7311 72.4228 23.5488 72.6051 23.2824C72.7874 23.0019 72.9557 22.7074 73.1099 22.3989C73.2782 22.0764 73.4184 21.7679 73.5306 21.4734C73.6568 21.1649 73.7199 20.9335 73.7199 20.7793C74.1406 20.4147 74.4561 20.008 74.6665 19.5593C74.8908 19.1105 75.0801 18.6758 75.2344 18.2551C75.4307 17.6942 75.6551 17.1824 75.9075 16.7196C76.1739 16.2429 76.4544 15.752 76.7489 15.2472L76.9382 14.8896C76.9943 14.8055 77.0574 14.7284 77.1275 14.6583C77.2116 14.5741 77.2958 14.49 77.3799 14.4058C77.4079 14.3778 77.4921 14.2586 77.6323 14.0483C77.7725 13.8379 77.9198 13.5855 78.074 13.291C78.2423 12.9965 78.3966 12.688 78.5368 12.3655C78.691 12.029 78.7822 11.7275 78.8102 11.461C78.9084 11.4049 79.0136 11.2998 79.1258 11.1455C79.252 10.9772 79.3641 10.8019 79.4623 10.6197C79.5605 10.4374 79.6446 10.2621 79.7147 10.0938C79.7848 9.92551 79.8199 9.79931 79.8199 9.71517C80.0863 9.63103 80.2546 9.56092 80.3247 9.50483C80.4089 9.44873 80.486 9.39965 80.5561 9.35759H80.5351C80.6753 9.25942 80.8225 9.17529 80.9768 9.10517C81.1451 9.03506 81.4045 9 81.7551 9C82.2879 9 82.7437 9.13322 83.1223 9.39965C83.5149 9.66609 83.7113 10.0377 83.7113 10.5145Z" fill="#fff"/>
<path d="M88.2337 32.811C88.5281 32.7549 88.8507 32.7198 89.2012 32.7058C89.5658 32.6777 89.9375 32.6357 90.3161 32.5796C90.6947 32.5095 91.0593 32.4113 91.4099 32.2851C91.7604 32.1589 92.0759 31.9696 92.3564 31.7172C92.4405 31.6471 92.5317 31.5559 92.6299 31.4437C92.742 31.3315 92.8542 31.2264 92.9664 31.1282C93.0786 31.016 93.1908 30.9249 93.303 30.8548C93.4151 30.7706 93.5273 30.7145 93.6395 30.6865C94.0181 30.6164 94.2846 30.5252 94.4388 30.413C94.6071 30.2868 94.7473 30.1676 94.8595 30.0555C94.9717 29.9433 95.0979 29.8451 95.2381 29.761C95.3784 29.6768 95.6167 29.6348 95.9533 29.6348H96.374C96.5282 29.6348 96.6404 29.6278 96.7105 29.6137C96.7386 29.6137 96.8858 29.5436 97.1523 29.4034C97.4187 29.2491 97.7062 29.0809 98.0147 28.8986C98.3372 28.7163 98.6247 28.555 98.8771 28.4148C99.1435 28.2605 99.2908 28.1764 99.3188 28.1624C99.2908 27.952 99.2627 27.8118 99.2347 27.7417C99.2206 27.6716 99.1996 27.6365 99.1716 27.6365C99.1435 27.6365 99.1225 27.6505 99.1085 27.6786C99.0944 27.6926 99.0804 27.6996 99.0664 27.6996C99.0383 27.6996 99.0173 27.6645 99.0033 27.5944C99.0033 27.5243 99.0033 27.3701 99.0033 27.1317C99.0033 27.1176 98.9262 27.0686 98.7719 26.9844C98.6177 26.9003 98.4494 26.8091 98.2671 26.711C98.0988 26.6128 97.9375 26.5217 97.7833 26.4375C97.629 26.3534 97.5519 26.3043 97.5519 26.2903L97.594 26.0379C97.1452 25.8836 96.7316 25.6803 96.353 25.4279C95.9743 25.1614 95.5957 24.895 95.2171 24.6286C94.8385 24.3481 94.4458 24.0887 94.0392 23.8503C93.6465 23.6119 93.2048 23.4366 92.714 23.3244L92.3985 23.2613C92.3985 23.2473 92.3985 23.1982 92.3985 23.1141C92.3985 23.0159 92.3915 22.9248 92.3774 22.8407C92.3634 22.7425 92.3494 22.6513 92.3354 22.5672C92.3214 22.4831 92.3003 22.441 92.2723 22.441C92.2442 22.441 92.2162 22.462 92.1881 22.5041C92.1601 22.5462 92.125 22.5952 92.083 22.6513C92.0549 22.7074 92.0269 22.7565 91.9988 22.7986C91.9708 22.8266 91.9497 22.8407 91.9357 22.8407C91.8235 22.8266 91.6903 22.7495 91.5361 22.6093C91.3958 22.469 91.2416 22.3148 91.0733 22.1465C90.905 21.9782 90.7368 21.824 90.5685 21.6838C90.4142 21.5295 90.274 21.4243 90.1478 21.3682C89.9935 21.2981 89.8393 21.235 89.685 21.1789C89.5448 21.1228 89.3976 21.0597 89.2433 20.9896C89.1732 20.9616 89.1241 20.9125 89.0961 20.8424C89.0821 20.7723 89.054 20.7022 89.0119 20.632C88.9699 20.5479 88.8997 20.4708 88.8016 20.4007C88.7034 20.3305 88.5492 20.2815 88.3388 20.2534C88.0163 20.2113 87.7779 20.0851 87.6237 19.8748C87.4694 19.6504 87.3923 19.398 87.3923 19.1176C87.3923 18.9212 87.4273 18.7179 87.4975 18.5076C87.5816 18.2972 87.7008 18.1079 87.855 17.9396C88.0233 17.7714 88.2196 17.6381 88.444 17.54C88.6824 17.4278 88.9488 17.3717 89.2433 17.3717C89.6219 17.3717 90.0496 17.4769 90.5264 17.6872C91.0172 17.8835 91.5501 18.2341 92.125 18.7389C92.2933 18.8932 92.4125 19.0124 92.4826 19.0965C92.5527 19.1666 92.6018 19.2227 92.6299 19.2648C92.6579 19.3069 92.6859 19.3489 92.714 19.391C92.7561 19.4191 92.8192 19.4611 92.9033 19.5172C93.0015 19.5733 93.1487 19.6504 93.345 19.7486C93.5413 19.8327 93.8218 19.9589 94.1864 20.1272C94.3967 20.2254 94.565 20.3305 94.6912 20.4427C94.8315 20.5549 94.9577 20.6741 95.0699 20.8003C95.182 20.9125 95.2942 21.0387 95.4064 21.1789C95.5186 21.3051 95.6518 21.4384 95.8061 21.5786C95.9883 21.7469 96.1847 21.8801 96.395 21.9782C96.6194 22.0624 96.8438 22.1465 97.0681 22.2307C97.2925 22.3008 97.5169 22.3849 97.7412 22.4831C97.9656 22.5672 98.1689 22.6794 98.3512 22.8196C98.5195 22.9598 98.6808 23.0931 98.835 23.2193C99.0033 23.3315 99.1646 23.4436 99.3188 23.5558C99.5011 23.696 99.6694 23.7942 99.8236 23.8503C99.9779 23.9064 100.125 23.9555 100.265 23.9975C100.42 24.0256 100.56 24.0536 100.686 24.0817C100.826 24.1097 100.974 24.1658 101.128 24.25C101.212 24.292 101.261 24.3551 101.275 24.4393C101.303 24.5094 101.317 24.5865 101.317 24.6706C101.331 24.7548 101.338 24.8389 101.338 24.9231C101.352 25.0072 101.387 25.0773 101.443 25.1334H102.032C102.172 25.2316 102.313 25.3157 102.453 25.3858C102.607 25.4419 102.74 25.512 102.853 25.5962C102.979 25.6803 103.077 25.7855 103.147 25.9117C103.231 26.0239 103.273 26.1851 103.273 26.3955C103.273 26.7881 103.21 27.1737 103.084 27.5524C102.972 27.931 102.916 28.3236 102.916 28.7303L102.937 29.0458C102.46 29.4384 102.025 29.761 101.633 30.0134C101.24 30.2658 100.84 30.4902 100.434 30.6865C100.041 30.8828 99.6273 31.0721 99.1926 31.2544C98.7579 31.4227 98.2601 31.619 97.6992 31.8434C97.4327 32.1238 97.1452 32.4043 96.8367 32.6848C96.5282 32.9652 96.1987 33.2036 95.8481 33.3999C95.6238 33.5261 95.4204 33.6103 95.2381 33.6523C95.0699 33.6944 94.8946 33.7365 94.7123 33.7786C94.544 33.8206 94.3687 33.8837 94.1864 33.9679C94.0181 34.052 93.8218 34.1992 93.5974 34.4096C93.3871 34.6199 93.1627 34.7251 92.9243 34.7251C92.8122 34.7251 92.707 34.7181 92.6088 34.7041C92.5107 34.69 92.4055 34.683 92.2933 34.683H92.125C91.9988 34.8794 91.8095 35.0827 91.5571 35.293C91.3187 35.5034 91.0593 35.6997 90.7788 35.882C90.5124 36.0643 90.246 36.2185 89.9795 36.3447C89.7271 36.4569 89.5168 36.513 89.3485 36.513C89.1101 36.513 88.8717 36.4429 88.6333 36.3027C88.4089 36.1484 88.1986 35.9521 88.0023 35.7137C87.806 35.4753 87.6447 35.2159 87.5185 34.9354C87.4063 34.641 87.3502 34.3535 87.3502 34.073C87.3502 33.8066 87.4133 33.5612 87.5395 33.3368C87.6798 33.1125 87.9111 32.9372 88.2337 32.811Z" fill="#fff"/>
</g>
</g>
<defs>
<filter id="filter0_d" x="0" y="0" width="146" height="146" filterUnits="userSpaceOnUse" color-interpolation-filters="sRGB">
<feFlood flood-opacity="0" result="BackgroundImageFix"/>
<feColorMatrix in="SourceAlpha" type="matrix" values="0 0 0 0 0 0 0 0 0 0 0 0 0 0 0 0 0 0 127 0"/>
<feOffset dy="4"/>
<feGaussianBlur stdDeviation="2"/>
<feColorMatrix type="matrix" values="0 0 0 0 0 0 0 0 0 0 0 0 0 0 0 0 0 0 0.25 0"/>
<feBlend mode="normal" in2="BackgroundImageFix" result="effect1_dropShadow"/>
<feBlend mode="normal" in="SourceGraphic" in2="effect1_dropShadow" result="shape"/>
</filter>
<filter id="filter1_d" x="15.353" y="54" width="53.8344" height="53.8344" filterUnits="userSpaceOnUse" color-interpolation-filters="sRGB">
<feFlood flood-opacity="0" result="BackgroundImageFix"/>
<feColorMatrix in="SourceAlpha" type="matrix" values="0 0 0 0 0 0 0 0 0 0 0 0 0 0 0 0 0 0 127 0"/>
<feOffset dy="3.64696"/>
<feGaussianBlur stdDeviation="1.82348"/>
<feColorMatrix type="matrix" values="0 0 0 0 0 0 0 0 0 0 0 0 0 0 0 0 0 0 0.25 0"/>
<feBlend mode="normal" in2="BackgroundImageFix" result="effect1_dropShadow"/>
<feBlend mode="normal" in="SourceGraphic" in2="effect1_dropShadow" result="shape"/>
</filter>
<filter id="filter2_d" x="77.1355" y="54" width="51.4517" height="51.4517" filterUnits="userSpaceOnUse" color-interpolation-filters="sRGB">
<feFlood flood-opacity="0" result="BackgroundImageFix"/>
<feColorMatrix in="SourceAlpha" type="matrix" values="0 0 0 0 0 0 0 0 0 0 0 0 0 0 0 0 0 0 127 0"/>
<feOffset dy="2.86451"/>
<feGaussianBlur stdDeviation="1.43226"/>
<feColorMatrix type="matrix" values="0 0 0 0 0 0 0 0 0 0 0 0 0 0 0 0 0 0 0.25 0"/>
<feBlend mode="normal" in2="BackgroundImageFix" result="effect1_dropShadow"/>
<feBlend mode="normal" in="SourceGraphic" in2="effect1_dropShadow" result="shape"/>
</filter>
<clipPath id="clip0">
<rect width="138" height="138" fill="white" transform="translate(4)"/>
</clipPath>
</defs>
</svg>
